<svg width="500" height="150" viewBox="0 0 500 150" fill="none" xmlns="http://www.w3.org/2000/svg">
<path d="M201.763 25.245V64.155H193.003V32.805H176.938V64.155H168.178V25.245H201.763Z" fill="#1D1D1B"/>
<path d="M220.618 48.12H225.523V41.205H220.618C218.218 41.205 216.823 42.72 216.823 44.685C216.823 46.65 218.218 48.105 220.618 48.105M234.283 33.945V64.14H225.523V55.02H222.133L216.058 64.14H206.713L213.958 53.4C210.283 51.945 208.063 48.93 208.063 44.52C208.063 38.25 212.788 33.96 220.213 33.96H234.283V33.945Z" fill="#1D1D1B"/>
<path d="M289.185 64.155H280.425V47.61C280.425 43.14 278.79 40.995 275.4 40.995C272.01 40.995 270.03 43.605 269.91 47.265V64.155H261.15V47.61C261.15 43.14 259.515 40.995 256.125 40.995C252.735 40.995 250.755 43.605 250.635 47.265V64.155H241.875V33.96H250.635V36.87C252.45 34.485 255.195 33.09 258.75 33.09C263.595 33.09 266.865 35.295 268.56 39.015C270.315 35.355 273.465 33.09 278.025 33.09C285.435 33.09 289.185 38.145 289.185 46.035V64.155Z" fill="#1D1D1B"/>
<path d="M312.942 25.305C312.942 22.455 315.282 20.25 318.147 20.25C321.012 20.25 323.337 22.455 323.337 25.305C323.337 28.155 320.997 30.465 318.147 30.465C315.297 30.465 312.942 28.14 312.942 25.305ZM304.707 45.045H318.837C317.847 41.85 315.387 40.335 311.832 40.335C308.277 40.335 305.817 42.075 304.707 45.045ZM300.267 25.305C300.267 22.455 302.607 20.25 305.457 20.25C308.307 20.25 310.662 22.455 310.662 25.305C310.662 28.155 308.322 30.465 305.457 30.465C302.592 30.465 300.267 28.14 300.267 25.305ZM321.582 54.105L326.142 60.6C323.457 63.21 318.732 65.01 313.002 65.01C302.382 65.01 295.602 58.98 295.602 49.05C295.602 39.825 302.487 33.09 311.832 33.09C321.927 33.09 328.467 40.755 327.372 51.21H304.242C305.067 54.93 308.097 57.135 313.062 57.135C316.857 57.135 319.662 55.8 321.582 54.12" fill="#1D1D1B"/>
<path d="M356.158 48.93C356.158 44.115 353.128 40.92 348.568 40.92C344.008 40.92 341.038 43.305 340.918 46.905V50.685C340.918 54.57 343.948 57.18 348.568 57.18C353.188 57.18 356.158 53.865 356.158 48.93ZM340.918 33.945V37.665C343.138 34.755 346.528 33.075 350.668 33.075C358.963 33.075 364.918 39.69 364.918 48.93C364.918 58.17 359.023 65.01 350.668 65.01C346.528 65.01 343.138 63.33 340.918 60.36V75.75H332.158V33.945H340.918Z" fill="#1D1D1B"/>
<path d="M393.014 48.93C393.014 44.4 390.209 40.92 385.424 40.92C380.639 40.92 377.774 44.4 377.774 48.93C377.774 53.46 380.579 57.18 385.424 57.18C390.269 57.18 393.014 53.64 393.014 48.93ZM369.014 48.93C369.014 39.93 375.959 33.075 385.424 33.075C394.889 33.075 401.774 39.93 401.774 48.93C401.774 57.93 394.829 65.01 385.424 65.01C376.019 65.01 369.014 58.095 369.014 48.93Z" fill="#1D1D1B"/>
<path d="M404.111 33.96H412.871V42.375C412.871 45.45 414.326 46.785 417.716 46.785C419.936 46.785 421.391 46.44 423.386 45.45V33.96H432.146V64.155H423.386V52.725C421.166 53.835 418.826 54.405 415.496 54.405C407.846 54.405 404.111 50.115 404.111 43.32V33.975V33.96Z" fill="#1D1D1B"/>
<path d="M446.158 33.96V47.55L458.188 33.96H467.533L454.918 48.12L468.118 64.155H457.603L446.158 50.265V64.155H437.398V33.96H446.158Z" fill="#1D1D1B"/>
<path d="M490.648 50.97V47.19C490.648 43.41 487.558 40.92 482.998 40.92C478.438 40.92 475.408 44.115 475.408 48.93C475.408 53.745 478.438 57.18 482.998 57.18C487.558 57.18 490.468 54.69 490.648 50.97ZM499.408 64.155H490.648V60.375C488.368 63.33 484.978 65.025 480.898 65.025C472.543 65.025 466.648 58.35 466.648 48.945C466.648 39.54 472.603 33.09 480.898 33.09C484.993 33.09 488.368 34.77 490.648 37.68V33.96H499.408V64.155Z" fill="#1D1D1B"/>
<path d="M176.938 111.84V117.765H182.833C185.173 117.765 186.388 116.55 186.388 114.81C186.388 113.07 185.218 111.855 182.833 111.855H176.938V111.84ZM176.938 100.455V105.735H181.438C183.718 105.735 185.173 104.64 185.173 103.005C185.173 101.37 184.063 100.455 181.438 100.455H176.938ZM168.178 124.2V94.005H183.073C189.553 94.005 194.113 97.14 194.113 101.79C194.113 104.925 192.418 107.19 189.673 108.465C193.123 109.575 195.403 111.945 195.403 115.545C195.403 120.765 190.783 124.2 184.663 124.2H168.193H168.178Z" fill="#1D1D1B"/>
<path d="M231.191 94.02H239.951V124.215H231.191V94.02ZM209.996 110.22V116.955H215.081C217.541 116.955 218.996 115.44 218.996 113.475C218.996 111.51 217.541 110.22 215.081 110.22H209.996ZM201.236 124.215V94.02H209.996V102.96H215.306C222.836 102.96 227.741 107.25 227.741 113.475C227.741 119.28 222.896 124.215 215.306 124.215H201.236Z" fill="#1D1D1B"/>
<path d="M271.543 109.005C271.543 104.19 268.513 100.995 263.953 100.995C259.393 100.995 256.423 103.38 256.303 106.98V110.76C256.303 114.645 259.333 117.255 263.953 117.255C268.573 117.255 271.543 113.94 271.543 109.005ZM256.303 94.02V97.74C258.523 94.83 261.913 93.15 266.053 93.15C274.348 93.15 280.303 99.765 280.303 109.005C280.303 118.245 274.408 125.085 266.053 125.085C261.913 125.085 258.523 123.405 256.303 120.435V135.825H247.543V94.02H256.303Z" fill="#1D1D1B"/>
<path d="M285.869 93.84H294.629V110.385C294.629 114.855 296.669 117 300.824 117C304.979 117 307.484 114.27 307.484 110.445V93.84H316.244V118.98C316.244 131.64 309.119 136.215 298.079 136.215C294.464 136.215 290.714 135.81 287.804 134.415V126.69H289.034C291.719 128.205 294.584 128.67 298.139 128.67C304.619 128.67 307.184 126.18 307.424 120.54C305.324 123.27 302.054 124.89 297.899 124.89C289.724 124.89 285.869 119.835 285.869 111.945V93.825V93.84Z" fill="#1D1D1B"/>
<path d="M322.934 94.02H331.694V102.435C331.694 105.51 333.149 106.845 336.539 106.845C338.759 106.845 340.214 106.5 342.209 105.51V94.02H350.969V124.215H342.209V112.785C339.989 113.895 337.649 114.465 334.319 114.465C326.669 114.465 322.934 110.175 322.934 103.38V94.035V94.02Z" fill="#1D1D1B"/>
<path d="M480.435 124.215H471.675V107.67C471.675 103.2 470.04 101.055 466.65 101.055C463.26 101.055 461.28 103.665 461.16 107.325V124.215H452.4V107.67C452.4 103.2 450.765 101.055 447.375 101.055C443.985 101.055 442.005 103.665 441.885 107.325V124.215H433.125V94.02H441.885V96.93C443.7 94.545 446.445 93.15 450 93.15C454.845 93.15 458.115 95.355 459.81 99.075C461.565 95.415 464.715 93.15 469.275 93.15C476.685 93.15 480.435 98.205 480.435 106.095V124.215Z" fill="#1D1D1B"/>
<path d="M498.298 87.165L497.023 112.65H490.318L489.043 87.165H498.283H498.298ZM493.453 126.195C490.918 126.195 488.953 124.365 488.953 121.605C488.953 118.845 490.918 117.015 493.453 117.015C495.988 117.015 498.013 118.845 498.013 121.605C498.013 124.365 496.048 126.195 493.453 126.195Z" fill="#1D1D1B"/>
<path d="M404.25 104.925H418.38C417.39 101.73 414.93 100.215 411.375 100.215C407.82 100.215 405.36 101.955 404.25 104.925ZM421.125 113.985L425.685 120.48C423 123.09 418.275 124.89 412.545 124.89C401.925 124.89 395.145 118.86 395.145 108.93C395.145 99.705 402.03 92.97 411.375 92.97C421.47 92.97 428.01 100.635 426.915 111.075H403.785C404.61 114.795 407.64 117 412.605 117C416.4 117 419.205 115.665 421.125 113.985Z" fill="#1D1D1B"/>
<path d="M380.443 110.94V107.16C380.443 103.38 377.353 100.89 372.793 100.89C368.233 100.89 365.203 104.085 365.203 108.9C365.203 113.715 368.233 117.15 372.793 117.15C377.353 117.15 380.263 114.66 380.443 110.94ZM389.203 124.125H380.443V120.345C378.163 123.3 374.773 124.995 370.693 124.995C362.338 124.995 356.443 118.32 356.443 108.915C356.443 99.51 362.398 93.06 370.693 93.06C374.788 93.06 378.163 94.74 380.443 97.65V93.93H389.203V124.125Z" fill="#1D1D1B"/>
<path d="M121.125 16.38C110.745 43.35 83.1902 39.855 63.7501 40.53L59.0252 58.92C82.9952 39.375 114.705 58.755 111.315 88.245C109.035 108.105 94.8752 121.095 79.8902 124.83C63.5702 128.895 45.4952 122.805 37.3801 106.185C36.5251 104.43 35.0251 100.905 34.4551 99.03L51.6751 94.605C51.9751 95.595 52.5002 96.555 53.0402 97.425C64.5602 116.01 87.9153 106.71 90.5403 87.435C93.2253 67.83 65.7001 57.375 53.1601 80.295L37.9051 73.785L37.6351 73.665L43.3201 50.865C44.2201 46.8 46.9351 36.21 47.2501 35.19C47.7301 33.6 47.8351 33.075 48.3901 31.635C58.1701 5.94 77.5052 3.34502 94.6952 3.34502C95.3852 3.34502 96.0602 3.34499 96.7352 3.35999C89.7302 1.18499 82.2752 0 74.5502 0C33.3751 0 0 33.375 0 74.55C0 115.725 33.3751 149.1 74.5502 149.1C115.725 149.1 149.1 115.725 149.1 74.55C149.1 51.015 138.18 30.03 121.125 16.365" fill="#E52322"/>
<path d="M114.33 11.34C111.435 20.325 106.395 25.965 98.6102 28.995C90.4952 32.16 80.6252 32.235 71.0852 32.31C65.9552 32.355 61.0352 32.385 56.5352 32.925C64.6352 13.365 79.1702 11.43 94.6802 11.43C96.8402 11.43 99.0003 11.475 101.1 11.52C103.185 11.565 105.165 11.595 107.13 11.595C109.95 11.595 112.275 11.505 114.33 11.325" fill="#00923A"/>
</svg>
