<svg width="1200" height="356" viewBox="0 0 1200 356" fill="none" xmlns="http://www.w3.org/2000/svg">
<g opacity="0.2">
<path d="M0 178H44.5222L0 133.395V178ZM0 88.9368L88.8969 178H133.293L0 44.4578V88.9368ZM0.0210706 0.0211101L177.646 177.958V133.479L44.4169 0H0.0210706V0.0211101ZM88.7916 0.0211101L177.646 89.0423V44.5423L133.187 0H88.7916V0.0211101Z" fill="#E52322"/>
<path d="M133.145 356H177.667V311.395L133.145 356ZM44.3744 356H88.7702L177.667 266.937V222.458L44.3744 356ZM44.4797 178L0.020752 222.542V267.021L88.8755 178H44.4797ZM133.25 178L0.020752 311.5V355.979L177.646 178H133.25Z" fill="#E52322"/>
<path d="M177.688 133.437L222.147 177.979H266.543L177.688 88.9579V133.437ZM177.688 44.5L310.918 177.979H355.313L177.688 0.0211101V44.5ZM222.042 0L355.335 133.542V89.0634L266.438 0H222.042ZM310.812 0L355.335 44.6056V0H310.812Z" fill="#E52322"/>
<path d="M266.48 355.979H310.876L355.335 311.437V266.958L266.48 355.979ZM177.709 355.979H222.105L355.335 222.5V178.021L177.709 355.979ZM177.688 177.979V222.585L222.21 177.979H177.688ZM266.585 177.979L177.688 267.043V311.522L310.981 177.979H266.585Z" fill="#E52322"/>
<path d="M488.501 178H533.023V133.395L488.501 178ZM399.73 178H444.126L533.023 88.9368V44.4578L399.73 178ZM399.835 0L355.376 44.5423V89.0212L444.21 0H399.814H399.835ZM488.606 0L355.376 133.479V177.958L532.981 0H488.585H488.606Z" fill="#E52322"/>
<path d="M355.356 311.437L399.815 355.979H444.21L355.356 266.958V311.437ZM355.356 222.5L488.585 355.979H532.981L355.356 178.021V222.5ZM399.709 178L533.002 311.542V267.063L444.105 178H399.709ZM488.48 178L533.002 222.606V178H488.48Z" fill="#E52322"/>
<path d="M533.023 133.437L577.482 177.979H621.878L533.023 88.9579V133.437ZM533.023 44.5L666.253 177.979H710.648L533.023 0.0211101V44.5ZM577.377 0L710.669 133.542V89.0634L621.772 0H577.377ZM666.147 0L710.669 44.6056V0H666.147Z" fill="#E52322"/>
<path d="M621.815 355.979H666.21L710.669 311.437V266.958L621.815 355.979ZM533.044 355.979H577.44L710.669 222.5V178.021L533.044 355.979ZM533.023 177.979V222.585L577.545 177.979H533.023ZM621.92 177.979L533.023 267.043V311.522L666.316 177.979H621.92Z" fill="#E52322"/>
<path d="M710.67 178H755.192L710.67 133.395V178ZM710.67 88.9368L799.567 178H843.962L710.67 44.4578V88.9368ZM710.691 0.0211101L888.316 177.979V133.5L755.087 0H710.691V0.0211101ZM799.461 0.0211101L888.316 89.0423V44.5423L843.857 0H799.461V0.0211101Z" fill="#E52322"/>
<path d="M843.835 356H888.358V311.395L843.835 356ZM755.065 356H799.461L888.358 266.937V222.458L755.065 356ZM755.17 178L710.711 222.542V267.021L799.566 178H755.17ZM843.941 178L710.711 311.479V355.958L888.337 178H843.941Z" fill="#E52322"/>
<path d="M888.358 133.437L932.817 177.979H977.213L888.358 88.9579V133.437ZM888.358 44.5L1021.59 177.979H1065.98L888.358 0.0211101V44.5ZM932.712 0L1066 133.542V89.0634L977.107 0H932.712ZM1021.48 0L1066 44.6056V0H1021.48Z" fill="#E52322"/>
<path d="M888.358 311.437L932.817 355.979H977.213L888.358 266.958V311.437ZM888.358 222.5L1021.59 355.979H1065.98L888.358 178.021V222.5ZM932.712 178L1066 311.542V267.063L977.107 178H932.712ZM1021.48 178L1066 222.606V178H1021.48Z" fill="#E52322"/>
<path d="M1066.03 133.437L1110.48 177.979H1154.88L1066.03 88.9579V133.437ZM1066.03 44.5L1199.25 177.979H1243.65L1066.03 0.0211101V44.5ZM1110.38 0L1243.67 133.542V89.0634L1154.77 0H1110.38ZM1199.15 0L1243.67 44.6056V0H1199.15Z" fill="#E52322"/>
<path d="M1154.82 355.979H1199.21L1243.67 311.437V266.958L1154.82 355.979ZM1066.05 355.979H1110.44L1243.67 222.5V178.021L1066.05 355.979ZM1066.03 177.979V222.585L1110.55 177.979H1066.03ZM1154.92 177.979L1066.03 267.043V311.522L1199.32 177.979H1154.92Z" fill="#E52322"/>
</g>
</svg>
