<svg width="20" height="21" viewBox="0 0 20 21" version="1.1" xmlns="http://www.w3.org/2000/svg" xmlns:xlink="http://www.w3.org/1999/xlink">
<path fill-rule="evenodd" clip-rule="evenodd" d="M 4 8.44444L 3.39003 8.00805C 3.23053 8.23099 3.20537 8.52319 3.3244 8.77012L 4 8.44444ZM 10 14.7778L 9.64321 15.4375C 9.9078 15.5806 10.2323 15.5517 10.4675 15.3642L 10 14.7778ZM 12.41 12.8567L 12.8775 13.4431C 12.9048 13.4214 12.9305 13.3978 12.9545 13.3725L 12.41 12.8567ZM 13.43 12.6033L 13.1748 13.3086L 13.1831 13.3115L 13.43 12.6033ZM 6.07 4.82389L 6.78888 4.60985L 6.78576 4.59988L 6.07 4.82389ZM 5.82 5.90056L 5.27554 5.38475C 5.25191 5.40969 5.23002 5.43622 5.21003 5.46416L 5.82 5.90056ZM 3.3244 8.77012C 4.82322 11.8584 6.71453 13.8431 9.64321 15.4375L 10.3568 14.1181C 7.62547 12.6514 6.05678 11.005 4.6756 8.11877L 3.3244 8.77012ZM 10.4675 15.3642L 12.8775 13.4431L 11.9425 12.2702L 9.5325 14.1913L 10.4675 15.3642ZM 12.9545 13.3725C 13.0259 13.2971 13.1142 13.2866 13.1748 13.3086L 13.6852 11.8981C 13.0458 11.6667 12.3341 11.8462 11.8655 12.3409L 12.9545 13.3725ZM 13.1831 13.3115C 14.3614 13.7198 15.6953 13.9522 17 13.955L 17 12.455C 15.8247 12.4578 14.7386 12.268 13.6769 11.8952L 13.1831 13.3115ZM 17 13.955C 17.0981 13.955 17.25 14.0555 17.25 14.2606L 18.75 14.2606C 18.75 13.3045 18.0019 12.455 17 12.455L 17 13.955ZM 17.25 14.2606L 17.25 17.9444L 18.75 17.9444L 18.75 14.2606L 17.25 14.2606ZM 17.25 17.9444C 17.25 18.1495 17.0981 18.25 17 18.25L 17 19.75C 18.0019 19.75 18.75 18.9005 18.75 17.9444L 17.25 17.9444ZM 17 18.25C 8.06191 18.25 0.75 10.5917 0.75 1.05556L -0.75 1.05556C -0.75 11.3427 7.15809 19.75 17 19.75L 17 18.25ZM 0.75 1.05556C 0.75 0.850489 0.901905 0.75 1 0.75L 1 -0.75C -0.00190543 -0.75 -0.75 0.0995107 -0.75 1.05556L 0.75 1.05556ZM 1 0.75L 4.5 0.75L 4.5 -0.75L 1 -0.75L 1 0.75ZM 4.5 0.75C 4.59809 0.75 4.75 0.850489 4.75 1.05556L 6.25 1.05556C 6.25 0.0995106 5.50191 -0.75 4.5 -0.75L 4.5 0.75ZM 4.75 1.05556C 4.7523 2.43367 4.96974 3.81262 5.35424 5.0479L 6.78576 4.59988C 6.43026 3.47071 6.2477 2.31633 6.25 1.05556L 4.75 1.05556ZM 5.35119 5.03791C 5.39013 5.1687 5.35839 5.29729 5.27554 5.38475L 6.36446 6.41636C 6.84161 5.91271 6.96987 5.21797 6.78881 4.60987L 5.35119 5.03791ZM 5.21003 5.46416L 3.39003 8.00805L 4.60997 8.88084L 6.42997 6.33695L 5.21003 5.46416Z"/>
<path id="path1_stroke" d="M 0 -0.75C -0.414214 -0.75 -0.75 -0.414214 -0.75 0C -0.75 0.414214 -0.414214 0.75 0 0.75L 0 -0.75ZM 6.25 7.38889C 6.25 7.8031 6.58579 8.13889 7 8.13889C 7.41421 8.13889 7.75 7.8031 7.75 7.38889L 6.25 7.38889ZM 0 0.75C 3.41409 0.75 6.25 3.6836 6.25 7.38889L 7.75 7.38889C 7.75 2.93262 4.31791 -0.75 0 -0.75L 0 0.75Z"/>
<path id="path2_stroke" d="M 0 -0.75C -0.414214 -0.75 -0.75 -0.414214 -0.75 0C -0.75 0.414214 -0.414214 0.75 0 0.75L 0 -0.75ZM 2.25 3.16667C 2.25 3.58088 2.58579 3.91667 3 3.91667C 3.41421 3.91667 3.75 3.58088 3.75 3.16667L 2.25 3.16667ZM 0 0.75C 1.20509 0.75 2.25 1.7931 2.25 3.16667L 3.75 3.16667C 3.75 1.04212 2.10891 -0.75 0 -0.75L 0 0.75Z"/>
</svg>
